<svg width="260" height="241" viewBox="0 0 260 241" fill="none" xmlns="http://www.w3.org/2000/svg">
<path fill-rule="evenodd" clip-rule="evenodd" d="M242.563 0H242.537H17.4635C12.843 0.00682972 8.41291 1.84178 5.14085 5.10409C1.86879 8.3664 0.0206222 12.791 0 17.4114V127.684V168.831C0.0137598 173.456 1.8589 177.887 5.1317 181.155C8.4045 184.423 12.8385 186.261 17.4635 186.268H77.6096H182.416H242.563C247.185 186.261 251.616 184.422 254.885 181.153C258.154 177.885 259.993 173.453 260 168.831V127.788V17.4114C259.979 12.7953 258.135 8.37466 254.868 5.11324L254.859 5.10409C253.603 3.85141 252.176 2.80918 250.632 2.0001C248.165 0.706167 245.4 0.00841642 242.563 0ZM17.4635 151.341V109.83V17.4114H242.537V109.83L242.563 109.856V151.341H120.136H85.4695H17.4635ZM83.4402 216.719H178.722C181.828 216.719 184.807 217.953 187.003 220.149C189.199 222.345 190.433 225.324 190.433 228.43C190.433 231.537 189.199 234.516 187.003 236.712C184.807 238.908 181.828 240.142 178.722 240.142H83.4402C80.3341 240.142 77.3552 238.908 75.1588 236.712C72.9624 234.516 71.7285 231.537 71.7285 228.43C71.7285 225.324 72.9624 222.345 75.1588 220.149C77.3552 217.953 80.3341 216.719 83.4402 216.719ZM60.5609 113.526V37.2954L115.762 89.868L87.8882 88.3324L102.333 122.088L93.1455 126.018L78.675 92.2884L60.5609 113.526Z" fill="white" fill-opacity="0.2"/>
</svg>
