<svg width="261" height="240" viewBox="0 0 261 240" fill="none" xmlns="http://www.w3.org/2000/svg">
<g opacity="0.2">
<path d="M164.311 216.59H83.3918C80.2875 216.59 77.3103 217.824 75.1153 220.019C72.9202 222.214 71.687 225.191 71.687 228.295C71.687 231.4 72.9202 234.377 75.1153 236.572C77.3103 238.767 80.2875 240 83.3918 240H175.339C173.417 234.139 170.862 228.505 167.718 223.197C166.47 220.96 165.377 218.801 164.311 216.59Z" fill="white"/>
<path d="M242.393 0H17.4531C12.8264 0.00687992 8.3911 1.84789 5.1195 5.1195C1.84789 8.3911 0.00687993 12.8264 0 17.4531L0 168.731C0.00687993 173.358 1.84789 177.793 5.1195 181.064C8.3911 184.336 12.8264 186.177 17.4531 186.184H182.308L181.45 184.623C180.536 182.902 179.34 181.346 177.913 180.019H130.053C127.406 180.013 124.87 178.958 122.998 177.086C121.126 175.215 120.072 172.678 120.065 170.031V152.084V151.278H17.4531V17.4531H242.393V109.791L256.569 123.941C257.73 125.109 258.824 126.342 259.846 127.634V17.4531C259.839 12.8264 257.998 8.3911 254.727 5.1195C251.455 1.84789 247.02 0.00687992 242.393 0Z" fill="white"/>
<path d="M181.762 167.82L166.467 152.63V176.196H130.052C129.378 176.22 128.706 176.108 128.075 175.867C127.445 175.626 126.87 175.26 126.384 174.791C125.899 174.323 125.513 173.761 125.249 173.14C124.985 172.519 124.85 171.851 124.85 171.176V51.2408C124.85 50.5671 124.985 49.9002 125.249 49.2803C125.513 48.6604 125.9 48.1004 126.386 47.6338C126.872 47.1672 127.447 46.8038 128.077 46.5655C128.707 46.3271 129.379 46.2187 130.052 46.2467H166.467V111.976C170.71 112.085 174.75 113.817 177.756 116.814L191.568 130.599V46.2467H203.22C203.876 46.2467 204.525 46.3759 205.131 46.6269C205.737 46.8779 206.288 47.2457 206.752 47.7095C207.215 48.1732 207.583 48.7237 207.834 49.3296C208.085 49.9355 208.214 50.585 208.214 51.2408V147.168L218.202 157.156V51.2408C218.195 47.2694 216.615 43.4626 213.807 40.6544C210.998 37.8462 207.192 36.2655 203.22 36.2587H130.052C126.081 36.2655 122.274 37.8462 119.466 40.6544C116.658 43.4626 115.077 47.2694 115.07 51.2408V171.176C115.07 175.152 116.648 178.965 119.457 181.779C122.266 184.593 126.077 186.177 130.052 186.184H179.473C178.871 179.969 179.652 173.697 181.762 167.82Z" fill="white"/>
<path d="M152.163 196.016C152.163 215.316 163.374 226.605 168.446 239.87H178.33C178.33 228.243 162.333 215.602 162.333 196.016H152.163ZM166.079 105.655C161.808 105.688 157.642 106.981 154.103 109.372C150.564 111.762 147.809 115.145 146.184 119.094C144.559 123.044 144.137 127.385 144.969 131.574C145.801 135.763 147.851 139.614 150.863 142.642L176.145 167.899C173.252 177.485 173.494 187.745 176.834 197.185C180.174 206.625 186.438 214.754 194.716 220.388L200.283 212.143C193.388 207.454 188.271 200.581 185.756 192.631C183.242 184.681 183.475 176.116 186.419 168.315L187.563 165.297L157.833 135.567C155.651 133.378 154.425 130.413 154.425 127.322C154.425 124.231 155.651 121.266 157.833 119.077C160.051 116.95 163.006 115.762 166.079 115.762C169.152 115.762 172.106 116.95 174.324 119.077L226.918 171.67L234.096 164.595L181.399 112.002C179.392 109.983 177.005 108.382 174.375 107.293C171.745 106.203 168.925 105.647 166.079 105.655ZM249.495 131.016L213.288 94.7307V108.854L242.446 138.09C247.387 142.994 250.191 149.649 250.249 156.61V239.844H260.107V156.61C260.119 151.854 259.188 147.143 257.366 142.749C255.544 138.356 252.869 134.367 249.495 131.016Z" fill="white"/>
</g>
</svg>
