<svg width="48" height="89" viewBox="0 0 48 89" fill="none" xmlns="http://www.w3.org/2000/svg">
<g opacity="0.2">
<path d="M47.3721 62.2744V4.31002C47.3815 3.1778 46.9413 2.0881 46.1482 1.28006C45.355 0.472023 44.2737 0.0116577 43.1415 0L4.47503 0C3.34131 0 2.25403 0.450368 1.45237 1.25203C0.65071 2.05369 0.200341 3.14097 0.200341 4.27469V84.01C0.195677 84.5743 0.302804 85.134 0.515538 85.6567C0.728272 86.1794 1.0424 86.6548 1.43981 87.0555C1.83722 87.4562 2.31003 87.7742 2.83098 87.9913C3.35192 88.2083 3.91068 88.32 4.47503 88.32H43.1415C43.7029 88.32 44.2588 88.2094 44.7774 87.9946C45.296 87.7798 45.7672 87.4649 46.1642 87.068C46.5611 86.671 46.876 86.1998 47.0908 85.6812C47.3056 85.1625 47.4162 84.6067 47.4162 84.0453V60.3844H41.6754V74.0122C41.6766 74.1386 41.6528 74.264 41.6055 74.3812C41.5582 74.4985 41.4883 74.6053 41.3997 74.6955C41.3111 74.7857 41.2057 74.8576 41.0893 74.907C40.9729 74.9565 40.848 74.9825 40.7216 74.9837H6.85084C6.72441 74.9825 6.59946 74.9565 6.4831 74.907C6.36674 74.8576 6.26127 74.7857 6.17269 74.6955C6.08412 74.6053 6.01418 74.4985 5.96687 74.3812C5.91957 74.264 5.89582 74.1386 5.89698 74.0122V6.70349C5.89582 6.57706 5.91957 6.45165 5.96687 6.3344C6.01418 6.21716 6.08412 6.11038 6.17269 6.02017C6.26127 5.92995 6.36674 5.85807 6.4831 5.80862C6.59946 5.75917 6.72441 5.73312 6.85084 5.73197H40.7216C40.848 5.73312 40.9729 5.75917 41.0893 5.80862C41.2057 5.85807 41.3111 5.92995 41.3997 6.02017C41.4883 6.11038 41.5582 6.21716 41.6055 6.3344C41.6528 6.45165 41.6766 6.57706 41.6754 6.70349V62.2744H47.3721Z" fill="white"/>
<path d="M28.7636 39.6557L21.9453 35.6989C21.7509 35.5856 21.53 35.5256 21.305 35.5248C21.08 35.524 20.8587 35.5825 20.6635 35.6945C20.4683 35.8064 20.306 35.9678 20.193 36.1624C20.0801 36.357 20.0203 36.5779 20.0199 36.8029V44.7517C20.0219 44.976 20.0827 45.1958 20.1963 45.3892C20.31 45.5825 20.4724 45.7427 20.6673 45.8536C20.8623 45.9645 21.0829 46.0222 21.3072 46.021C21.5315 46.0199 21.7515 45.9598 21.9453 45.8469L28.8077 41.8813C29.002 41.7656 29.1622 41.6005 29.272 41.4027C29.3818 41.205 29.4373 40.9818 29.4328 40.7556C29.4283 40.5295 29.364 40.3086 29.2465 40.1154C29.1289 39.9222 28.9623 39.7636 28.7636 39.6557Z" fill="white"/>
<path d="M23.7819 52.3561C21.49 52.3578 19.2493 51.6793 17.3433 50.4066C15.4373 49.1339 13.952 47.3241 13.0752 45.2066C12.1985 43.0891 11.97 40.759 12.4185 38.5115C12.8669 36.264 13.9723 34.2001 15.5946 32.5813C17.2135 30.959 19.2773 29.8536 21.5249 29.4051C23.7724 28.9566 26.1025 29.1852 28.22 30.0619C30.3375 30.9386 32.1472 32.424 33.42 34.3299C34.6927 36.2359 35.3712 38.4767 35.3695 40.7685C35.3718 42.2909 35.0737 43.7987 34.4922 45.2056C33.9106 46.6126 33.0572 47.8909 31.9807 48.9674C30.9043 50.0438 29.6259 50.8973 28.219 51.4788C26.8121 52.0603 25.3042 52.3584 23.7819 52.3561ZM23.7819 30.8237C21.8154 30.8254 19.8935 31.4102 18.2592 32.504C16.625 33.5978 15.3517 35.1516 14.6004 36.9689C13.849 38.7862 13.6533 40.7855 14.038 42.7141C14.4228 44.6426 15.3706 46.4138 16.7618 47.8037C18.1529 49.1936 19.925 50.1399 21.8538 50.5229C23.7827 50.9059 25.7818 50.7085 27.5985 49.9555C29.4151 49.2025 30.9678 47.9279 32.0602 46.2926C33.1525 44.6574 33.7355 42.735 33.7355 40.7685C33.7332 38.1302 32.6835 35.6007 30.8171 33.7359C28.9506 31.8712 26.4202 30.8237 23.7819 30.8237Z" fill="white"/>
</g>
</svg>
