<svg width="70" height="89" viewBox="0 0 70 89" fill="none" xmlns="http://www.w3.org/2000/svg">
<g opacity="0.2">
<path d="M47.205 26.1612V4.27771C47.205 3.14319 46.7543 2.05514 45.9521 1.25291C45.1499 0.450686 44.0618 0 42.9273 0H4.27771C3.14319 0 2.05514 0.450686 1.25291 1.25291C0.450686 2.05514 0 3.14319 0 4.27771V84.034C0 85.1685 0.450686 86.2565 1.25291 87.0588C2.05514 87.861 3.14319 88.3117 4.27771 88.3117H42.9273C43.4894 88.3128 44.0462 88.203 44.5657 87.9884C45.0852 87.7738 45.5573 87.4588 45.9547 87.0613C46.3522 86.6639 46.6672 86.1919 46.8818 85.6723C47.0963 85.1528 47.2062 84.596 47.205 84.034V60.3917H41.5044V74.0467C41.5055 74.1728 41.4817 74.2979 41.4343 74.4147C41.3868 74.5316 41.3167 74.6378 41.2279 74.7274C41.1392 74.817 41.0336 74.8881 40.9172 74.9366C40.8008 74.9851 40.6759 75.0101 40.5498 75.0101H6.65519C6.40123 75.0078 6.15845 74.9053 5.9797 74.7248C5.80094 74.5444 5.70065 74.3007 5.70066 74.0467V6.67287C5.70065 6.41889 5.80094 6.17519 5.9797 5.99477C6.15845 5.81436 6.40123 5.71183 6.65519 5.7095H40.5498C40.6759 5.7095 40.8008 5.73448 40.9172 5.783C41.0336 5.83152 41.1392 5.90262 41.2279 5.99219C41.3167 6.08177 41.3868 6.18804 41.4343 6.30487C41.4817 6.4217 41.5055 6.54678 41.5044 6.67287V26.1612H47.205Z" fill="white"/>
<path d="M65.1559 23.4213H23.8284C22.7876 23.4213 21.7895 23.8348 21.0535 24.5707C20.3176 25.3066 19.9042 26.3047 19.9042 27.3455V28.9717H69.0801V27.3455C69.0801 26.3047 68.6667 25.3066 67.9308 24.5707C67.1948 23.8348 66.1967 23.4213 65.1559 23.4213ZM19.9042 50.7668C19.9042 51.2817 20.0057 51.7916 20.2031 52.2672C20.4004 52.7428 20.6896 53.1748 21.0541 53.5385C21.4186 53.9022 21.8513 54.1904 22.3273 54.3867C22.8034 54.5829 23.3134 54.6833 23.8284 54.6822H65.1559C65.6709 54.6833 66.1809 54.5829 66.657 54.3867C67.133 54.1904 67.5657 53.9022 67.9302 53.5385C68.2947 53.1748 68.5839 52.7428 68.7812 52.2672C68.9786 51.7916 69.0801 51.2817 69.0801 50.7668V34.7166H19.9042V50.7668Z" fill="white"/>
</g>
</svg>
