<svg width="260" height="279" viewBox="0 0 260 279" fill="none" xmlns="http://www.w3.org/2000/svg">
<g opacity="0.2">
<path d="M253.155 211.33C253.155 206.792 254.089 201.636 252.286 197.322C250.204 192.409 244.357 190.486 239.52 192.344C233.916 194.492 233.132 200.095 233.197 205.419C233.197 208.856 233.776 221.071 226.538 220.249C221.663 219.698 222.448 214.422 222.42 213.348C222.298 209.22 222.569 205.101 222.569 200.973V186.199C222.569 174.058 223.111 161.731 222.775 149.58C222.672 145.686 222.345 141.175 219.898 137.935C217.097 134.199 210.877 133.639 207.057 136.067C202.602 138.943 202.518 145.322 202.5 150.029C202.5 156.361 202.565 162.692 202.658 169.024C201.565 167.018 199.774 165.483 197.624 164.708C195.474 163.934 193.116 163.974 190.994 164.822C186.632 166.409 185.204 171.266 184.653 175.431C183.491 173.796 181.863 172.55 179.982 171.855C178.101 171.16 176.054 171.049 174.109 171.537C169.047 172.779 166.834 177.43 166.488 182.258C164.981 180.335 162.847 179.001 160.458 178.489C158.069 177.977 155.576 178.32 153.413 179.456C149.827 181.436 148.669 185.2 148.389 189.019C147.586 199.871 148.389 211.106 148.324 222.005C148.137 243.756 158.895 265.18 179.413 274.416C196.354 282.046 222.373 277.311 235.868 264.815C242.366 258.72 247.335 251.179 250.372 242.803C254.163 232.483 253.108 222.257 253.108 211.414" fill="white"/>
<path d="M203.329 29.9691H173.332V59.9662H203.329V29.9691Z" fill="white"/>
<path d="M123.332 69.9684H93.335V99.9655H123.332V69.9684Z" fill="white"/>
<path d="M123.332 109.968H93.335V139.965H123.332V109.968Z" fill="white"/>
<path d="M123.332 29.9691H93.335V59.9662H123.332V29.9691Z" fill="white"/>
<path d="M203.329 69.9684H173.332V99.9655H203.329V69.9684Z" fill="white"/>
<path d="M83.3315 109.968H53.3344V139.965H83.3315V109.968Z" fill="white"/>
<path d="M83.3315 69.9684H53.3344V99.9655H83.3315V69.9684Z" fill="white"/>
<path d="M163.331 29.9691H133.334V59.9662H163.331V29.9691Z" fill="white"/>
<path d="M260 0H0V169.971H163.994V149.976H19.995V19.9763H240.005V149.976H239.641V169.971H260V0Z" fill="white"/>
<path d="M163.331 109.968H133.334V139.965H163.331V109.968Z" fill="white"/>
<path d="M163.331 69.9684H133.334V99.9655H163.331V69.9684Z" fill="white"/>
</g>
</svg>
