<svg width="265" height="286" viewBox="0 0 265 286" fill="none" xmlns="http://www.w3.org/2000/svg">
<g opacity="0.2">
<path d="M230.744 20.2527C230.744 25.9578 230.385 31.565 230.026 36.944H246.326C240.85 78.8351 221.224 108.501 193.319 118.705C206.359 93.0814 214.118 57.0909 214.118 11.8093C160.847 -3.93643 104.159 -3.93643 50.8888 11.8093C50.8888 57.1887 58.778 93.3096 71.7855 118.868C43.619 108.827 23.7981 79.0633 18.3213 36.944H35.1429C34.7843 31.565 34.5561 25.9578 34.4583 20.2527H0L0.684602 29.2504C5.80282 92.1034 38.1747 134.027 84.5321 138.852C95.2249 151.892 107.841 160.075 121.533 162.878V200.108C109.416 201.922 97.9429 206.729 88.1507 214.093V251.192H177.182V214.093C167.389 206.729 155.916 201.922 143.799 200.108V162.78C158.407 159.269 171.345 150.801 180.409 138.819C226.571 133.832 258.91 91.9078 263.865 29.2504L264.583 20.2527H230.744Z" fill="white"/>
<path d="M186.977 262H81.0235C77.5694 262 74.2569 263.234 71.8145 265.43C69.3721 267.627 68 270.606 68 273.712C68 276.818 69.3721 279.797 71.8145 281.993C74.2569 284.19 77.5694 285.423 81.0235 285.423H186.977C190.431 285.423 193.743 284.19 196.186 281.993C198.628 279.797 200 276.818 200 273.712C200 270.606 198.628 267.627 196.186 265.43C193.743 263.234 190.431 262 186.977 262Z" fill="white"/>
</g>
</svg>
