<svg width="70" height="70" viewBox="0 0 70 70" fill="none" xmlns="http://www.w3.org/2000/svg">
<rect width="70.0001" height="70.0001" rx="6.31956" fill="white"/>
<path fill-rule="evenodd" clip-rule="evenodd" d="M44.517 14C44.8169 16.6044 44.0487 18.1164 42.5491 19.994L42.5075 20.0435C40.9554 21.8924 39.0432 24.1701 36.6454 23.99C36.3255 21.4865 37.2337 17.6131 38.6133 15.998C40.1372 14.2028 42.258 14.1046 44.3687 14.0069C44.4182 14.0046 44.4676 14.0023 44.517 14ZM51.0837 28.0325C50.8696 28.1536 47.1935 30.4717 47.2519 36.0223C47.3103 42.6829 52.9023 43.9918 52.9997 44.012C52.9607 44.1533 51.2507 46.9364 49.1678 50.0043C48.8142 50.5564 48.4863 51.131 48.1636 51.6964C46.9058 53.901 45.7284 55.9644 43.42 55.9966C42.0395 56.0262 40.9492 55.5491 39.8173 55.0538C38.6349 54.5364 37.4073 53.9991 35.7563 53.9991C34.0103 53.9991 32.7096 54.5404 31.4603 55.0603C30.3836 55.5083 29.3451 55.9405 28.0926 55.9966C25.954 56.0903 24.7677 54.059 23.5019 51.8916C23.1316 51.2575 22.7545 50.6118 22.3448 50.0043C18.7435 44.5345 14.7559 34.7941 18.5129 28.0325C20.3232 24.7224 24.5303 24.0982 28.0926 24.0377C29.6622 24.0033 31.3743 24.652 32.871 25.2191C34.0101 25.6508 35.0244 26.0351 35.7563 26.0351C36.3994 26.0351 37.2064 25.6784 38.1447 25.2637C39.6204 24.6114 41.4209 23.8156 43.42 24.0377C44.7826 24.078 48.5726 24.238 51.0837 28.0325Z" fill="#212121"/>
</svg>
