<svg width="70" height="70" viewBox="0 0 70 70" fill="none" xmlns="http://www.w3.org/2000/svg">
<rect width="70.0001" height="70.0001" rx="6.31956" fill="white"/>
<path fill-rule="evenodd" clip-rule="evenodd" d="M46.4012 27.1869L20.3043 12.3588C18.9049 11.5636 17.6471 11.5766 16.804 12.2366L39.0787 34.5101L46.4012 27.1869ZM47.026 27.542L39.5687 35L47.0278 42.4587L55.5596 37.6115C58.0852 36.1744 58.0852 33.8261 55.5596 32.3907L47.026 27.542ZM46.4018 42.8126L39.0788 35.4899L16.8056 57.7651C17.6487 58.4235 18.9058 58.4347 20.3043 57.6417L46.4018 42.8126ZM16.3284 57.2624L38.5888 35L16.3265 12.7389C15.9355 13.2896 15.7104 14.0571 15.7104 15.0089V54.9896C15.7104 55.9446 15.9362 56.7119 16.3284 57.2624Z" fill="#212121"/>
</svg>
