<svg width="70" height="70" viewBox="0 0 70 70" fill="none" xmlns="http://www.w3.org/2000/svg">
<rect width="70.0001" height="70.0001" rx="6.31956" fill="white"/>
<path fill-rule="evenodd" clip-rule="evenodd" d="M30.4069 41.7583H33.2974L31.8472 38.3857L30.4069 41.7583ZM29.6951 43.4579L28.8375 45.4202H26.885L31.037 36.0003H32.7245L36.8598 45.4202H34.8552L34.0086 43.4579H29.6951ZM61.1137 45.4132H63.0008V35.9998H61.1137V45.4132ZM53.6029 41.3694H57.0814V39.653H53.6029V37.7237H58.6525V36.0067H51.7164V45.4196H58.8342V43.7026H53.6029V41.3694ZM46.1049 42.4816L43.9655 35.9998H42.4042L40.2648 42.4816L38.1827 36.005H36.1468L39.4326 45.4254H41.0153L43.1582 39.2375L45.3011 45.4254H46.8977L50.1748 36.005H48.1916L46.1049 42.4816ZM24.0043 41.3954C24.0043 42.9278 23.2433 43.7466 21.8614 43.7466C20.472 43.7466 19.7069 42.9041 19.7069 41.33V36.0061H17.7944V41.3954C17.7944 44.0464 19.2677 45.5666 21.8354 45.5666C24.4284 45.5666 25.9151 44.0175 25.9151 41.3167V36.0003H24.0043V41.3954ZM13.2314 36.0003H15.1428V45.426H13.2314V41.598H8.91329V45.426H7.00073V36.0003H8.91329V39.8023H13.2314V36.0003Z" fill="#212121"/>
<path fill-rule="evenodd" clip-rule="evenodd" d="M35.0007 23.9995C28.3833 23.9995 23.0007 18.6164 23.0007 11.9995H24.6958C24.6958 17.6812 29.319 22.3039 35.0007 22.3039C40.6825 22.3039 45.3057 17.6812 45.3057 11.9995H47.0008C47.0008 18.6164 41.6176 23.9995 35.0007 23.9995Z" fill="#212121"/>
</svg>
