<svg width="92" height="100" viewBox="0 0 92 100" fill="none" xmlns="http://www.w3.org/2000/svg">
<path d="M0 0.232571L0.181336 80.6473L0.815976 81.2189C27.8653 105.706 65.4158 105.264 92 80.0994L91.862 0L0 0.232571Z" fill="#D7282F"/>
<path d="M29.9308 75.0459L31.823 75.8579L31.8505 78.6882L24.9049 78.6921L24.897 76.0984L26.7891 74.967" fill="#FFDA00"/>
<path d="M56.7594 75.3454L58.6515 76.1535L58.6791 78.9838L51.7335 78.9917L51.7256 76.3979L53.6216 75.2666" fill="#FFDA00"/>
<path d="M19.8554 74.1866C19.7962 74.498 19.7253 74.3206 19.6583 74.3758C19.4773 73.8936 19.1544 73.4776 18.7322 73.1827C18.3099 72.8879 17.8082 72.728 17.2931 72.7241C16.6278 72.7352 15.9928 73.0039 15.5215 73.4737C15.0503 73.9435 14.7796 74.5777 14.7664 75.243C14.7405 75.6616 14.8091 76.0806 14.9674 76.4689C15.2868 77.1915 15.8128 77.8034 16.4791 78.2278C17.1455 78.6521 17.9224 78.8699 18.7122 78.8538C20.7344 78.8538 23.1942 77.1154 23.0483 73.8436L22.6068 52.7466L20.8093 53.6611L19.8554 74.1866Z" fill="#FFDA00"/>
<path d="M40.3493 79.2323C38.6968 79.2355 37.1105 78.5825 35.9391 77.417C34.7676 76.2514 34.1066 74.6685 34.1014 73.0159L34.0383 45.4227C34.0635 43.7531 34.6803 42.1466 35.779 40.8891C36.8776 39.6317 38.3868 38.8049 40.0379 38.5559C40.8458 38.427 41.6721 38.4752 42.4595 38.6971C43.247 38.9189 43.9769 39.3092 44.5987 39.8409C45.2112 40.3739 45.7 41.0342 46.0309 41.7756C46.3618 42.5171 46.5268 43.3218 46.5145 44.1336L46.5815 72.9884C46.5836 74.6402 45.9302 76.2254 44.7647 77.3961C43.5992 78.5667 42.017 79.2271 40.3651 79.2323M40.9169 41.6857C40.7759 41.6852 40.635 41.6944 40.4952 41.7133C39.6078 41.8665 38.7997 42.3188 38.2051 42.9951C37.6106 43.6714 37.2655 44.5309 37.2273 45.4305L37.2943 73.0238C37.2943 73.8341 37.6162 74.6111 38.1891 75.184C38.7621 75.7569 39.5391 76.0788 40.3493 76.0788C41.1595 76.0788 41.9366 75.7569 42.5095 75.184C43.0824 74.6111 43.4043 73.8341 43.4043 73.0238L43.3373 44.1731C43.3503 43.8206 43.2866 43.4695 43.1505 43.1442C43.0143 42.8188 42.8091 42.527 42.5489 42.2888C42.0991 41.9056 41.5235 41.702 40.9327 41.7173" fill="#FFDA00"/>
<path d="M69.5075 78.9129H69.3144C66.1017 78.8143 63.4804 75.9919 63.4764 72.6295L63.5237 51.6586C63.5029 50.8401 63.6697 50.0277 64.0114 49.2837C64.353 48.5396 64.8604 47.8836 65.4947 47.3659C66.0985 46.9135 66.7999 46.609 67.5427 46.4769C68.2855 46.3448 69.0489 46.3887 69.7716 46.6051C73.0474 47.4723 75.1484 50.3262 75.1287 53.8661L75.2469 72.9251C75.2507 73.7403 75.0915 74.5479 74.7788 75.3007C74.4661 76.0534 74.0061 76.7361 73.4258 77.3085C72.3806 78.334 70.9757 78.9099 69.5115 78.9129M68.3644 49.593C68.0281 49.5846 67.6988 49.6902 67.4302 49.8926C67.1822 50.1154 66.9877 50.3914 66.8615 50.7C66.7352 51.0085 66.6803 51.3416 66.7009 51.6744L66.6536 72.6295C66.6536 74.293 67.8914 75.6924 69.4129 75.7397C69.7453 75.7514 70.0764 75.6945 70.3857 75.5724C70.695 75.4503 70.9758 75.2657 71.2104 75.0301C71.4853 74.755 71.7025 74.4278 71.8493 74.0677C71.9962 73.7076 72.0698 73.3219 72.0658 72.933L71.9476 53.8661C71.9673 51.359 70.4102 50.0582 68.9517 49.6719C68.7606 49.618 68.5629 49.5914 68.3644 49.593Z" fill="#FFDA00"/>
<path d="M61.1389 43.085C57.5748 41.6573 53.9286 40.4436 50.2198 39.4506L48.2489 38.946L48.0912 51.2645L50.0621 51.7572L51.2723 52.0804L51.4182 43.0732C53.2235 43.6054 56.0578 44.4923 58.9787 45.6315L59.0024 54.5599C59.7158 54.8201 60.4451 55.0999 61.1744 55.3916L62.1795 55.7858L62.1519 43.4832L61.1389 43.085Z" fill="#FFDA00"/>
<path d="M56.6959 42.5358L53.5187 42.543L53.5979 77.4405L56.7751 77.4333L56.6959 42.5358Z" fill="#FFDA00"/>
<path d="M29.8484 44.5795L26.6712 44.5867L26.7484 78.6052L29.9256 78.598L29.8484 44.5795Z" fill="#FFDA00"/>
<path d="M22.9645 49.215L19.7874 49.2222L19.8444 74.3714L23.0216 74.3642L22.9645 49.215Z" fill="#FFDA00"/>
<path d="M31.9885 40.365C29.5327 41.6974 22.8079 45.5407 16.8359 50.6139V54.8594C21.9998 50.0069 28.6931 46.1438 32.1541 44.161L31.9885 40.365Z" fill="#FFDA00"/>
<path d="M55.0407 21.4518L52.9042 20.2416L56.3219 14.5811L59.093 14.6008L55.0407 21.4518Z" fill="white"/>
<path d="M17.5257 14.593H15.878C15.878 14.593 16.4022 15.0897 16.4062 16.9582C16.4062 18.4482 17.5257 14.593 17.5257 14.593Z" fill="white"/>
<path d="M27.2622 14.6797H25.6224C25.6224 14.6797 26.1467 15.1724 26.1506 17.0448C26.1506 18.5349 27.2701 14.6797 27.2701 14.6797" fill="white"/>
<path d="M27.4593 14.6797H29.107C29.107 14.6797 28.5828 15.1764 28.5906 17.0448C28.5906 18.5349 27.4593 14.6797 27.4593 14.6797Z" fill="white"/>
<path d="M51.2053 14.6245H49.5576C49.5576 14.6245 50.0818 15.1172 50.0858 16.9897C50.0858 18.4797 51.2053 14.6245 51.2053 14.6245Z" fill="white"/>
<path d="M51.4063 14.6245H53.0501C53.0501 14.6245 52.5298 15.1212 52.5337 16.9897C52.5337 18.4797 51.4063 14.6245 51.4063 14.6245Z" fill="white"/>
<path d="M42.4188 15.3734V17.7385C42.1017 17.4566 41.7199 17.2573 41.3074 17.1583C40.8948 17.0592 40.4641 17.0636 40.0536 17.1709C38.5912 17.4665 42.4188 15.3616 42.4188 15.3616" fill="white"/>
<path d="M75.2902 15.2986V17.6637C75.2902 17.6637 74.7068 16.8753 72.8265 16.8753C71.3483 16.9266 75.2902 15.2986 75.2902 15.2986Z" fill="white"/>
<path d="M49.0333 15.3578V17.7229C48.7135 17.4374 48.3277 17.2361 47.9107 17.137C47.4937 17.0379 47.0585 17.0442 46.6445 17.1553C45.186 17.4509 49.0097 15.3459 49.0097 15.3459" fill="white"/>
<path d="M33.1829 14.6638H31.5352C31.5352 14.6638 32.0595 15.1605 32.0634 17.029C32.0634 18.519 33.1829 14.6638 33.1829 14.6638Z" fill="white"/>
<path d="M33.38 14.6638H35.0277C35.0277 14.6638 34.5074 15.1605 34.5113 17.029C34.5113 18.519 33.38 14.6638 33.38 14.6638Z" fill="white"/>
<path d="M24.7512 16.5994C24.7879 16.356 24.7719 16.1076 24.7041 15.871C24.6363 15.6343 24.5184 15.4151 24.3583 15.2281C24.1983 15.0411 23.9998 14.8908 23.7765 14.7873C23.5532 14.6838 23.3102 14.6297 23.064 14.6285L17.1867 14.5969V17.0488L22.3111 17.0764L22.3545 28.5394C20.1257 30.1568 18.3777 32.3489 17.297 34.8819C17.2655 35.6979 17.1945 36.5139 17.1118 37.3259L17.1354 37.929C17.1669 38.8514 17.3719 39.7935 17.2852 40.7081H18.6176C18.6123 38.6369 19.1214 36.5968 20.099 34.7708C21.0767 32.9449 22.4924 31.3902 24.219 30.2463L24.8142 29.8875L24.7512 16.5994Z" fill="white"/>
<path d="M18.6255 45.5014L16.4653 47.2319L16.3904 14.6087L18.5545 14.6008L18.6255 45.5014Z" fill="white"/>
<path d="M32.4576 31.0386C31.208 31.0386 29.1385 30.8848 27.6722 29.4618C26.6788 28.496 26.1703 27.1519 26.1664 25.4647L26.1427 14.6797H28.5946L28.6221 25.4608C28.6221 26.4778 28.8705 27.211 29.3829 27.7077C30.3566 28.6537 32.1817 28.6104 32.9543 28.5828H33.2421V31.0386H33.0134C32.8558 31.0386 32.6665 31.0386 32.4497 31.0386" fill="white"/>
<path d="M64.1899 39.5019C63.8894 39.5008 63.5897 39.4704 63.2951 39.4112C62.1082 39.1534 61.0415 38.5064 60.2644 37.5729C59.4874 36.6395 59.0446 35.4731 59.0063 34.2591L58.9708 19.0079C58.9708 17.8088 59.4472 16.6588 60.2951 15.8108C61.143 14.9629 62.2931 14.4866 63.4922 14.4866C64.6913 14.4866 65.8414 14.9629 66.6893 15.8108C67.5372 16.6588 68.0135 17.8088 68.0135 19.0079L68.053 35.5915C68.0718 36.1075 67.9853 36.622 67.7988 37.1036C67.6124 37.5851 67.3298 38.0236 66.9684 38.3924C66.6069 38.7613 66.1742 39.0526 65.6965 39.2488C65.2188 39.4449 64.7062 39.5418 64.1899 39.5334M63.776 37.0382C64.0042 37.0957 64.2422 37.1022 64.4732 37.0573C64.7042 37.0123 64.9224 36.917 65.1123 36.778C65.2776 36.6306 65.4072 36.4476 65.4912 36.2427C65.5752 36.0378 65.6114 35.8164 65.5972 35.5954L65.5617 19.0079C65.5384 18.4752 65.3104 17.972 64.9253 17.6033C64.5401 17.2346 64.0274 17.0287 63.4942 17.0287C62.9609 17.0287 62.4483 17.2346 62.0631 17.6033C61.6779 17.972 61.4499 18.4752 61.4266 19.0079L61.4621 34.2631C61.4965 34.9117 61.7409 35.5315 62.1582 36.0292C62.5755 36.5269 63.1433 36.8755 63.776 37.0224" fill="white"/>
<path d="M76.1457 46.9796L69.0661 42.0049L69.003 14.4747L75.2864 14.4629L75.2943 16.9148L71.4627 16.9266L71.5179 40.5504L76.1497 44.1178L76.1457 46.9796Z" fill="white"/>
<path d="M75.1996 26.7181L70.5245 26.2215L70.8478 23.7893L75.1996 24.3648V26.7181Z" fill="white"/>
<path d="M49.0688 32.8714C44.4528 31.6613 44.4568 27.2936 44.4765 26.6984V20.9984C44.4765 19.6069 44.7958 18.582 45.4423 17.9513C46.4199 17.0013 48.0163 17.0447 48.7889 17.0644H49.0451V14.6086H48.8599C47.8429 14.5731 45.4501 14.514 43.7354 16.1854C42.6002 17.293 42.0246 18.9092 42.0286 20.9945V26.6314C41.9024 29.2764 43.2742 34.2353 49.0806 35.3824L49.0688 32.8714Z" fill="white"/>
<path d="M42.5409 32.8597C37.8107 31.6771 37.8106 27.2543 37.8304 26.6552V20.9552C37.8304 19.5637 38.1497 18.5388 38.7961 17.9081C39.7737 16.9581 41.3702 17.0014 42.1428 17.0211H42.4345V14.5693H42.2138C41.2007 14.5338 38.808 14.4747 37.0893 16.146C35.954 17.2537 35.3785 18.8699 35.3825 20.9552V26.5921C35.2563 29.2568 36.6399 34.2709 42.5488 35.3707L42.5409 32.8597Z" fill="white"/>
<path d="M32.0595 14.6639V27.0927C32.0595 29.9821 30.5339 33.9753 26.4107 37.0539V40.0064V40.034C31.4839 36.8804 34.5034 32.0595 34.4955 27.0888V14.656L32.0595 14.6639Z" fill="white"/>
<path d="M54.5401 23.281C55.0486 23.7737 55.297 24.5108 55.3009 25.5239L55.3285 37.05C56.1169 37.2944 56.9447 37.5664 57.7843 37.8384L57.7528 25.5003C57.7528 23.8131 57.2443 22.465 56.2509 21.4992C55.2253 20.5828 53.9188 20.0422 52.5455 19.9658V22.4453C53.2812 22.4991 53.9809 22.7848 54.5441 23.2612" fill="white"/>
<path d="M52.5416 22.4648C52.0186 22.4011 51.4912 22.38 50.9648 22.4017H50.6771V19.9459H50.9018C51.4512 19.9228 52.0015 19.9346 52.5495 19.9814V14.6125H50.1015L50.0621 35.6071C50.6101 35.7372 51.4694 35.9501 52.5179 36.2339L52.5416 22.4648Z" fill="white"/>
<path d="M50.8978 19.9501H50.6731V22.394H50.9609C51.4873 22.3723 52.0146 22.3934 52.5376 22.4571V19.9776C51.9897 19.9308 51.4393 19.919 50.8899 19.9422" fill="white"/>
<path d="M58.3835 38.0629L54.7057 36.9789C54.7057 36.9789 55.4113 36.6872 55.3797 34.4797C55.3797 34.4797 57.6424 34.7241 57.6858 34.8266C57.7291 34.9291 57.7528 37.3967 58.3835 38.0629Z" fill="white"/>
<path d="M15.9253 48.0162L19.272 45.2884C19.272 45.2884 18.6373 45.316 18.6097 43.1716C18.6097 43.1716 16.4969 44.4725 16.4614 44.5868C16.4259 44.7011 16.4614 47.0978 15.9253 48.0162Z" fill="white"/>
<path d="M53.1487 36.5571L49.4709 35.473C49.4709 35.473 50.1804 35.1813 50.145 32.9739C50.145 32.9739 52.4115 33.2183 52.451 33.3208C52.4904 33.4233 52.518 35.8909 53.1487 36.5571Z" fill="white"/>
<path d="M76.1535 45.6157V43.2505C76.1535 43.2505 75.5741 43.6013 73.6859 42.2217C72.1959 41.1298 76.1575 45.6275 76.1575 45.6275" fill="white"/>
<path d="M75.1957 25.4647L75.2233 23.7578C75.2233 23.7578 74.6753 24.2584 72.7754 24.0377C71.2695 23.8603 75.1957 25.4647 75.1957 25.4647Z" fill="white"/>
<path d="M75.1918 25.4607V27.2109C75.1918 27.2109 74.6951 26.6354 72.7912 26.4225C71.2854 26.2451 75.1878 25.4725 75.1878 25.4725" fill="white"/>
<path d="M57.2364 14.5811H55.6912C55.6912 14.5811 56.0341 15.0501 55.3837 16.1578C54.6268 17.435 56.7397 15.7636 56.7397 15.7636L57.2364 14.5811Z" fill="white"/>
</svg>
