<svg width="187" height="53" viewBox="0 0 187 53" fill="none" xmlns="http://www.w3.org/2000/svg">
<path fill-rule="evenodd" clip-rule="evenodd" d="M26.1857 10.5361L29.4768 8.82791C29.763 8.68556 29.9061 8.25852 29.763 7.90265L25.971 0.571695C25.7564 0.215824 25.3986 0.144649 25.0409 0.286998L21.7497 1.99518C21.392 2.2087 21.3204 2.56457 21.4635 2.92045L25.2555 10.2514C25.4702 10.6073 25.8279 10.6784 26.1857 10.5361ZM18.2444 43.4911C18.1728 44.274 17.8866 45.3416 17.5289 46.0534L14.8101 51.605C14.8101 51.7473 14.667 51.7473 14.5239 51.7473C6.15289 49.4697 -0.000183105 41.7829 -0.000183105 32.7438C-0.000183105 21.8541 8.94323 12.9573 19.9615 13.0285C21.1778 13.0285 22.3226 13.0997 23.4673 13.3132C23.5389 13.3132 23.6104 13.3844 23.6104 13.4556C23.4979 14.3882 23.2282 16.4352 22.9764 18.3465C22.7477 20.0819 22.5338 21.7054 22.4657 22.2812C22.2097 24.1275 21.2095 24.664 20.1819 25.2151C20.0608 25.2801 19.9392 25.3453 19.8184 25.4128L19.718 25.465C18.1254 26.2925 16.9783 26.8886 14.5955 25.9822C12.8662 25.3331 11.5089 24.8023 10.3336 24.3428C8.93165 23.7946 7.78867 23.3476 6.58217 22.9217C5.8667 22.637 4.86503 22.9217 4.57884 23.7047C4.29266 24.4876 4.57885 25.2705 5.36587 25.5552C5.36587 25.5552 9.37251 27.0499 11.0181 27.7616C11.6305 28.0385 12.1996 28.275 12.7269 28.4942C14.9104 29.4016 16.3783 30.0117 17.2427 31.9609C17.7435 33.1708 18.7452 35.7331 18.7452 36.8719C18.6737 38.5089 18.2444 43.4911 18.2444 43.4911ZM39.7083 33.5972C39.2791 43.8463 30.8365 52.1737 20.5337 52.4584C19.7466 52.4584 18.9596 52.4584 18.1726 52.3872C18.0295 52.3872 17.9579 52.1737 18.0295 52.1025L20.8198 47.1915C21.2491 46.4798 21.5353 45.768 21.6069 44.9139L22.1792 40.6435C22.2508 39.7894 22.6801 38.9353 23.4671 38.6506L24.8265 38.2947C25.6135 38.01 26.2574 38.2947 26.6152 39.0065C26.9013 39.5047 27.6167 40.928 27.903 41.4974L27.903 41.4976C28.1177 41.8534 28.0461 42.2805 27.8315 42.494C27.4766 42.8975 27.1667 43.2473 26.8762 43.5752C26.3466 44.1728 25.8817 44.6976 25.3273 45.341C24.7549 45.9816 24.2541 46.978 25.2558 47.8321C26.1859 48.6862 27.116 47.7609 27.6884 47.1915C28.4039 46.4798 29.5486 45.1275 30.2641 44.2734C30.908 43.5616 31.2658 43.0634 31.3373 42.1381C31.3373 41.7823 31.3373 41.4264 31.1942 40.9994C31.0605 40.6005 30.5367 39.3011 29.8632 37.6306L29.8631 37.6302L29.8629 37.6298C29.0945 35.7237 28.1313 33.3345 27.3307 31.2485C26.0428 27.8321 25.3989 24.3446 25.8282 20.7147L26.5436 14.1667C26.5436 14.0955 26.6152 14.0243 26.7583 14.0243C34.5569 17.0136 40.0661 24.7005 39.7083 33.5972ZM16.17 16.2295C14.0951 16.443 12.5211 18.2935 12.7357 20.3576C12.9503 22.4216 14.8106 23.9163 16.8854 23.7739C18.9603 23.5604 20.5344 21.7099 20.3197 19.6458C20.1051 17.5818 18.2448 16.0159 16.17 16.2295ZM177.008 16.159C171.642 16.159 167.349 19.86 167.349 25.554C167.349 31.2479 171.642 34.949 177.008 34.949C182.374 34.949 186.667 31.2479 186.667 25.554C186.667 19.9312 182.374 16.159 177.008 16.159ZM172.572 25.6247C172.572 28.4005 174.432 30.1799 177.008 30.1799C179.584 30.1799 181.444 28.4005 181.444 25.6247C181.444 22.8489 179.584 21.0695 177.008 21.0695C174.432 21.0695 172.572 22.8489 172.572 25.6247ZM137.299 16.159C131.933 16.159 127.641 19.86 127.641 25.554C127.641 31.2479 131.933 34.949 137.299 34.949C142.666 34.949 146.958 31.2479 146.958 25.554C146.958 19.9312 142.666 16.159 137.299 16.159ZM132.863 25.6247C132.863 28.4005 134.724 30.1799 137.299 30.1799C139.875 30.1799 141.735 28.4005 141.735 25.6247C141.735 22.8489 139.875 21.0695 137.299 21.0695C134.724 21.0695 132.863 22.8489 132.863 25.6247ZM109.109 16.5139H122.918V34.6634H117.695V21.2826H113.617L113.187 27.4748C113.172 27.6416 113.156 27.8079 113.141 27.9734L113.141 27.9738C112.813 31.5489 112.521 34.7345 107.392 34.7345H105.174L105.818 30.3217C108.41 30.2589 108.432 29.8071 108.896 20.6233C108.957 19.4118 109.026 18.0484 109.109 16.5139ZM83.4239 25.554C83.4239 19.86 87.7167 16.159 93.0828 16.159C98.4488 16.159 102.742 19.9312 102.742 25.554C102.742 31.2479 98.4488 34.949 93.0828 34.949C87.7167 34.949 83.4239 31.2479 83.4239 25.554ZM93.0827 30.1799C90.507 30.1799 88.6468 28.4005 88.6468 25.6247C88.6468 22.8489 90.507 21.0695 93.0827 21.0695C95.6584 21.0695 97.5186 22.8489 97.5186 25.6247C97.5186 28.4005 95.6584 30.1799 93.0827 30.1799ZM56.3791 29.7541C53.5172 29.7541 50.9415 29.2558 50.9415 25.4124C50.9415 22.6366 52.444 21.2843 55.449 21.3555C56.88 21.3555 58.5256 21.6402 59.7419 22.0673L61.459 17.6544C59.5988 16.7292 57.3808 16.3021 55.2344 16.3021C49.0813 16.3021 45.504 20.2167 45.504 25.626C45.504 32.1028 49.9399 34.8786 55.2344 34.8786C57.2377 34.8786 59.3126 34.5227 61.0297 33.9533L60.9582 29.1135C59.6703 29.4694 57.9532 29.7541 56.3791 29.7541ZM65.3225 16.5139H81.1344L80.2043 21.2114H75.6253V34.6634H70.4023V21.2826H65.3225V16.5139ZM165.331 16.5851L165.346 16.5139V16.5851H165.331ZM149.033 16.5851H165.331L164.415 21.2114H159.836V34.6634H154.542V21.2826H149.963L149.033 16.5851ZM52.6585 41.9228H48.795V49.0403H47.7218V41.0687H52.6585V41.9228ZM52.8732 44.4867C52.6585 44.9849 52.5154 45.4831 52.5154 46.0525C52.5154 46.9778 52.7301 47.7607 53.2309 48.3301C53.7317 48.8995 54.3757 49.1842 55.1627 49.1842C55.7351 49.1842 56.1643 49.113 56.5936 48.8283C56.9514 48.5436 57.3091 48.1877 57.5237 47.7607C57.7384 47.2625 57.8815 46.7642 57.8815 46.1948V46.1237C57.8815 45.1984 57.6668 44.4867 57.166 43.9173C56.6652 43.3479 56.0213 43.0632 55.2342 43.0632C54.6619 43.0632 54.2326 43.1343 53.8033 43.419C53.4456 43.6326 53.0878 43.9884 52.8732 44.4867ZM53.5171 46.1222C53.5171 46.7628 53.6602 47.3322 53.9464 47.6881C54.2326 48.1151 54.6619 48.2575 55.1627 48.2575C55.6635 48.2575 56.0928 48.0439 56.379 47.6881C56.6652 47.3322 56.8083 46.6916 56.8083 45.9799C56.8083 45.3393 56.6652 44.7699 56.379 44.4141C56.0928 43.987 55.6635 43.8447 55.1627 43.8447C54.6619 43.8447 54.2326 44.0582 53.9464 44.4141C53.6602 44.8411 53.5171 45.4105 53.5171 46.1222ZM62.4606 47.9728C62.246 48.1863 61.8883 48.3287 61.5305 48.3287C61.0297 48.3287 60.6004 48.1152 60.3142 47.8305C60.028 47.4746 59.8849 46.9764 59.8849 46.2646V46.0511C59.8849 45.3394 60.028 44.77 60.3142 44.4141C60.6004 44.0582 61.0297 43.8447 61.5305 43.8447C61.9598 43.8447 62.246 43.9871 62.5322 44.2006C62.8184 44.4141 62.9615 44.77 62.9615 45.1258H63.82C63.7485 44.4853 63.5338 43.9871 63.1046 43.56C62.6753 43.2041 62.1029 42.9906 61.459 42.9906C60.8866 42.9906 60.4573 43.133 60.028 43.3465C59.5987 43.6312 59.3125 43.9871 59.0979 44.4141C58.8833 44.9123 58.8117 45.4105 58.8117 45.9799V46.1223C58.8117 47.0476 59.0264 47.7593 59.5272 48.3287C60.028 48.8269 60.672 49.1116 61.459 49.1116C61.8883 49.1116 62.246 49.0404 62.6037 48.8269C62.9615 48.6846 63.2477 48.3999 63.4623 48.1152C63.6769 47.7593 63.82 47.4746 63.82 47.1187H62.8899C62.8899 47.4746 62.7468 47.7593 62.4606 47.9728ZM67.0396 47.5456L68.399 43.1328H69.4722L67.1111 49.9655C66.7534 50.962 66.181 51.4602 65.3224 51.4602H65.1078L64.75 51.389V50.5349H65.0362C65.394 50.5349 65.6802 50.4637 65.8233 50.3214C66.0379 50.1791 66.181 49.8944 66.3241 49.5385L66.5387 48.9691L64.3923 43.1328H65.5371L67.0396 47.5456ZM70.4027 47.7591L70.0449 48.1862H69.6157V50.7484H70.6173V49.0403H74.7671V50.7484H75.7687V48.1862H74.9817V43.1328H71.1182L71.0466 45.4815C71.0466 46.478 70.832 47.2609 70.4027 47.7591ZM71.2608 48.1875H73.9796V44.0594H72.1194L72.0478 45.4829C71.9763 46.6217 71.7616 47.5469 71.2608 48.1875ZM80.4816 48.7201C80.503 48.8509 80.5204 48.9577 80.562 49.0404V48.9693H81.7067V48.8981C81.5636 48.6134 81.4921 48.1863 81.4921 47.6169V44.9123C81.4921 44.2718 81.349 43.8447 80.9197 43.4888C80.4904 43.133 79.9896 42.9906 79.2741 42.9906C78.8448 42.9906 78.4155 43.0618 78.0578 43.2041C77.7001 43.3465 77.4139 43.56 77.1992 43.8447C76.9846 44.1294 76.913 44.4141 76.913 44.6988H77.9147C77.9147 44.4853 78.0578 44.2718 78.2724 44.0582C78.5586 43.8447 78.8448 43.7735 79.2026 43.7735C79.6319 43.7735 79.918 43.8447 80.1327 44.0582C80.3473 44.2718 80.4189 44.5564 80.4189 44.9123V45.4105H79.4172C78.5586 45.4105 77.9147 45.5529 77.4139 45.9088C76.913 46.2646 76.6984 46.6917 76.6984 47.3322C76.6984 47.8305 76.913 48.2575 77.2708 48.6134C77.6285 48.9693 78.1293 49.1116 78.7017 49.1116C79.4172 49.1116 79.918 48.8981 80.4189 48.3999C80.4488 48.5191 80.4663 48.6259 80.4816 48.7201ZM78.845 48.2571C79.1312 48.2571 79.4889 48.186 79.7751 48.0436C80.0613 47.9013 80.276 47.6877 80.4191 47.403V46.1931H79.632C78.4157 46.1931 77.7718 46.549 77.7718 47.2607C77.7718 47.5454 77.8434 47.8301 78.058 47.9724C78.2726 48.186 78.4873 48.2571 78.845 48.2571ZM87.3588 48.3287C87.7881 47.7593 88.0028 47.0475 88.0028 46.1223H88.0743V45.9799C88.0743 45.0547 87.8597 44.3429 87.4304 43.7735C87.0011 43.2753 86.4287 42.9906 85.7132 42.9906C84.9978 42.9906 84.4254 43.2753 83.9961 43.7735L83.9246 43.133H82.9944V51.318H83.9961V48.471C84.4254 48.9692 84.9978 49.1828 85.7132 49.1828C86.3572 49.1828 86.9296 48.8981 87.3588 48.3287ZM87.0013 46.0525C87.0013 45.4119 86.8582 44.8425 86.572 44.4866C86.2858 44.1308 85.9281 43.9172 85.4273 43.9172C84.7833 43.9172 84.354 44.2019 84.0679 44.7001V47.5471C84.354 48.1165 84.8549 48.33 85.4988 48.33C85.9996 48.33 86.3574 48.1165 86.6436 47.7606C86.8582 47.3336 87.0013 46.7642 87.0013 46.0525ZM92.5819 47.9728C92.3673 48.1863 92.0095 48.3287 91.6518 48.3287C91.151 48.3287 90.7932 48.1152 90.3639 47.8305C90.0778 47.4746 89.9347 46.9764 89.9347 46.2646V46.0511C89.9347 45.3394 90.0778 44.77 90.3639 44.4141C90.6501 44.0582 91.0794 43.8447 91.5803 43.8447C92.0095 43.8447 92.2957 43.9871 92.5819 44.2006C92.8681 44.4141 93.0112 44.77 93.0112 45.1258H93.9413C93.8698 44.4853 93.6551 43.9871 93.2258 43.56C92.7966 43.2041 92.2242 42.9906 91.5803 42.9906C91.0079 42.9906 90.5786 43.133 90.1493 43.3465C89.72 43.6312 89.4338 43.9871 89.2192 44.4141C89.0045 44.9123 88.933 45.4105 88.933 45.9799V46.1223C88.933 47.0476 89.1476 47.7593 89.6485 48.3287C90.1493 48.8269 90.7932 49.1116 91.5803 49.1116C92.0095 49.1116 92.3673 49.0404 92.725 48.8269C93.0828 48.6846 93.3689 48.3999 93.5836 48.1152C93.7982 47.7593 93.9413 47.4746 93.9413 47.1187H93.0112C93.0112 47.4746 92.8681 47.7593 92.5819 47.9728ZM99.5936 43.9173H97.5903V49.0418H96.5886V43.9173H94.6568V43.0632H99.5936V43.9173ZM100.667 43.1328V49.0403H103.386C104.101 49.0403 104.674 48.8979 105.103 48.6132C105.461 48.2573 105.675 47.9015 105.675 47.3321C105.675 47.0474 105.532 46.6915 105.317 46.478C105.103 46.1933 104.817 46.0509 104.459 45.9798C104.745 45.8374 105.031 45.6951 105.174 45.4815C105.317 45.268 105.389 45.0545 105.389 44.7698C105.389 44.2716 105.174 43.8445 104.745 43.5598C104.387 43.2751 103.743 43.1328 102.956 43.1328H100.667ZM101.74 45.6254H103.028C103.958 45.6254 104.459 45.3407 104.459 44.7713C104.459 44.2019 104.029 43.9172 103.099 43.9172H101.74V45.6254ZM101.74 48.1872V46.479H103.314C104.172 46.479 104.602 46.7637 104.602 47.3331C104.602 47.6178 104.53 47.8313 104.315 47.9737C104.101 48.116 103.815 48.1872 103.385 48.1872H101.74ZM109.467 49.1116C108.68 49.1116 108.037 48.8269 107.536 48.3287C107.035 47.8305 106.749 47.1187 106.749 46.1935V45.9799C106.749 45.4105 106.892 44.8411 107.106 44.4141C107.321 43.9871 107.679 43.56 108.037 43.3465C108.466 43.0618 108.895 42.9906 109.324 42.9906C110.111 42.9906 110.684 43.2753 111.113 43.7735C111.542 44.2718 111.757 44.9835 111.757 45.9799V46.407H107.75C107.75 46.9764 107.965 47.4746 108.251 47.8305C108.609 48.1863 108.967 48.3999 109.467 48.3999C109.825 48.3999 110.111 48.3287 110.398 48.1863C110.612 48.044 110.898 47.8305 111.042 47.6169L111.685 48.1152C111.256 48.7557 110.469 49.1116 109.467 49.1116ZM108.394 44.2717C108.608 43.987 108.966 43.8447 109.395 43.8447C109.825 43.8447 110.111 43.987 110.469 44.2717C110.755 44.5564 110.898 44.9835 110.898 45.4817V45.5528H107.893C107.964 44.9835 108.107 44.5564 108.394 44.2717ZM117.767 49.0403H116.836V46.5492H114.118V49.0403H113.044V43.1328H114.046V45.6951H116.765V43.1328H117.767V49.0403ZM123.347 49.0403H124.349V43.1328H123.347V45.6951H120.629V43.1328H119.627V49.0403H120.629V46.5492H123.347V49.0403ZM127.068 45.1257H128.642C129.286 45.1257 129.858 45.3392 130.216 45.6239C130.574 45.9798 130.788 46.4068 130.788 47.0474C130.788 47.6168 130.574 48.115 130.216 48.4709C129.787 48.8267 129.286 49.0403 128.57 49.0403H126.066V43.1328H127.068V45.1257ZM127.068 48.1877V45.9813H128.57C128.928 46.0525 129.214 46.1236 129.429 46.3372C129.643 46.5507 129.715 46.7642 129.715 47.1201C129.715 47.4759 129.643 47.6895 129.429 47.903C129.214 48.1165 128.928 48.1877 128.57 48.1877H127.068ZM132.935 49.0403H131.933V43.1328H132.935V49.0403ZM135.224 48.3287C135.725 48.8269 136.369 49.1116 137.156 49.1116C138.158 49.1116 138.945 48.7557 139.374 48.1152L138.73 47.6169C138.587 47.8305 138.301 48.044 138.086 48.1863C137.8 48.3287 137.514 48.3999 137.156 48.3999C136.655 48.3999 136.298 48.1863 135.94 47.8305C135.654 47.4746 135.439 46.9764 135.439 46.407H139.446V45.9799C139.446 44.9835 139.231 44.2718 138.802 43.7735C138.372 43.2753 137.8 42.9906 137.013 42.9906C136.584 42.9906 136.155 43.0618 135.725 43.3465C135.367 43.56 135.01 43.9871 134.795 44.4141C134.58 44.8411 134.437 45.4105 134.437 45.9799V46.1935C134.437 47.1187 134.724 47.8305 135.224 48.3287ZM137.013 43.8447C136.584 43.8447 136.226 43.987 136.011 44.2717C135.725 44.5564 135.582 44.9835 135.51 45.5528H138.515V45.4817C138.515 44.9835 138.372 44.5564 138.086 44.2717C137.8 43.987 137.442 43.8447 137.013 43.8447ZM148.318 49.0403V43.1328H144.383L144.24 45.6951C144.168 46.6203 144.096 47.2609 143.953 47.6168C143.81 47.9726 143.596 48.115 143.238 48.1862H142.952V49.1114H143.381C143.953 49.0403 144.383 48.8267 144.669 48.3997C144.955 47.9726 145.098 47.1897 145.17 46.1933L145.313 43.9869H147.316V49.0403H148.318ZM149.677 46.0525C149.677 45.4831 149.82 44.9849 150.034 44.4867C150.249 43.9884 150.607 43.6326 150.964 43.419C151.394 43.1343 151.823 43.0632 152.395 43.0632C153.182 43.0632 153.826 43.3479 154.327 43.9173C154.828 44.4867 155.043 45.1984 155.043 46.1237V46.1948C155.043 46.7642 154.899 47.2625 154.685 47.7607C154.47 48.1877 154.112 48.5436 153.755 48.8283C153.325 49.113 152.896 49.1842 152.324 49.1842C151.537 49.1842 150.893 48.8995 150.392 48.3301C149.963 47.7607 149.677 46.9778 149.677 46.0525ZM151.108 47.6881C150.822 47.3322 150.679 46.7628 150.679 46.1222C150.679 45.4105 150.893 44.8411 151.108 44.4141C151.394 44.0582 151.823 43.8447 152.324 43.8447C152.825 43.8447 153.254 43.987 153.541 44.4141C153.827 44.7699 153.97 45.3393 153.97 45.9799C153.97 46.6916 153.827 47.3322 153.541 47.6881C153.254 48.0439 152.825 48.2575 152.324 48.2575C151.823 48.2575 151.394 48.1151 151.108 47.6881ZM160.695 43.9173H158.691V49.0418H157.69V43.9173H155.758V43.0632H160.695V43.9173ZM161.768 48.3287C162.269 48.8269 162.912 49.1116 163.699 49.1116C164.701 49.1116 165.417 48.7557 165.917 48.1152L165.274 47.6169C165.13 47.8305 164.844 48.044 164.63 48.1863C164.343 48.3287 164.057 48.3999 163.699 48.3999C163.199 48.3999 162.841 48.1863 162.483 47.8305C162.197 47.4746 161.982 46.9764 161.982 46.407H165.989V45.9799C165.989 44.9835 165.774 44.2718 165.345 43.7735C164.916 43.2753 164.343 42.9906 163.556 42.9906C163.127 42.9906 162.698 43.0618 162.269 43.3465C161.911 43.56 161.553 43.9871 161.338 44.4141C161.124 44.8411 160.981 45.4105 160.981 45.9799V46.1935C160.981 47.1187 161.267 47.8305 161.768 48.3287ZM163.557 43.8447C163.127 43.8447 162.77 43.987 162.555 44.2717C162.269 44.5564 162.126 44.9835 162.054 45.5528H165.059V45.4817C165.059 44.9835 164.916 44.5564 164.63 44.2717C164.344 43.987 163.986 43.8447 163.557 43.8447ZM171.57 48.3287C172 47.7593 172.214 47.0475 172.214 46.1223H172.286V45.9799C172.286 45.0547 172.071 44.3429 171.642 43.7735C171.213 43.2753 170.64 42.9906 169.925 42.9906C169.209 42.9906 168.637 43.2753 168.208 43.7735L168.136 43.133H167.206V51.318H168.208V48.471C168.637 48.9692 169.209 49.1828 169.925 49.1828C170.569 49.1828 171.141 48.8981 171.57 48.3287ZM171.212 46.0525C171.212 45.4119 171.069 44.8425 170.783 44.4866C170.497 44.1308 170.139 43.9172 169.638 43.9172C168.994 43.9172 168.565 44.2019 168.279 44.7001V47.5471C168.565 48.1165 169.066 48.33 169.71 48.33C170.211 48.33 170.568 48.1165 170.855 47.7606C171.069 47.3336 171.212 46.7642 171.212 46.0525ZM174.003 48.3287C174.504 48.8269 175.148 49.1116 175.935 49.1116C176.936 49.1116 177.723 48.7557 178.153 48.1152L177.509 47.6169C177.366 47.8305 177.079 48.044 176.865 48.1863C176.578 48.3287 176.292 48.3999 175.935 48.3999C175.434 48.3999 175.076 48.1863 174.718 47.8305C174.432 47.4746 174.217 46.9764 174.217 46.407H178.224V45.9799C178.224 44.9835 178.009 44.2718 177.58 43.7735C177.151 43.2753 176.578 42.9906 175.791 42.9906C175.362 42.9906 174.933 43.0618 174.504 43.3465C174.146 43.56 173.788 43.9871 173.574 44.4141C173.359 44.8411 173.216 45.4105 173.216 45.9799V46.1935C173.216 47.1187 173.502 47.8305 174.003 48.3287ZM175.863 43.8447C175.434 43.8447 175.076 43.987 174.861 44.2717C174.575 44.5564 174.432 44.9835 174.36 45.5528H177.365V45.4817C177.365 44.9835 177.222 44.5564 176.936 44.2717C176.578 43.987 176.292 43.8447 175.863 43.8447ZM184.306 43.1328H183.304L180.585 47.4744V43.1328H179.584V49.0403H180.585L183.304 44.6986V49.0403H184.306V43.1328Z" fill="white"/>
</svg>
