<svg width="70" height="70" viewBox="0 0 70 70" fill="none" xmlns="http://www.w3.org/2000/svg">
<rect width="70.0001" height="70.0001" rx="6.31956" fill="white"/>
<g clip-path="url(#clip0_188_3819)">
<path d="M56.5363 20.9995C56.6578 20.9988 56.7748 21.0459 56.8617 21.1305C56.9486 21.2152 56.9984 21.3306 57.0003 21.4517V48.5489C56.9976 48.6694 56.9475 48.7841 56.8607 48.8682C56.7739 48.9522 56.6573 48.9989 56.5363 48.9981H50.576C50.4548 48.9993 50.3381 48.9527 50.2512 48.8686C50.1643 48.7845 50.1143 48.6695 50.112 48.5489V21.4517C50.1126 21.3916 50.125 21.3323 50.1487 21.277C50.1723 21.2218 50.2067 21.1717 50.2498 21.1297C50.2929 21.0877 50.3439 21.0546 50.3999 21.0322C50.4559 21.0099 50.5157 20.9988 50.576 20.9995H56.5363ZM30.6683 20.9995C35.1647 20.9995 39.8623 21.2042 42.1852 23.515C44.465 25.79 44.712 30.3186 44.7221 34.717V48.5489C44.7198 48.6693 44.67 48.784 44.5834 48.8681C44.4968 48.9522 44.3805 48.9989 44.2595 48.9981H38.2993C38.1781 48.9993 38.0614 48.9527 37.9745 48.8686C37.8876 48.7845 37.8376 48.6695 37.8353 48.5489V34.4795C37.8353 32.0227 37.6916 29.4987 36.416 28.2281C35.3213 27.1335 33.2786 26.8831 31.1539 26.8316H20.3496C20.2288 26.8309 20.1126 26.8776 20.0262 26.9618C19.9399 27.0459 19.8904 27.1606 19.8885 27.2809V48.5489C19.8862 48.6695 19.8362 48.7845 19.7493 48.8686C19.6624 48.9527 19.5457 48.9993 19.4245 48.9981H13.4599C13.3393 48.9989 13.2232 48.9521 13.1371 48.8679C13.051 48.7837 13.0018 48.669 13.0002 48.5489V21.4517C13.0006 21.3919 13.0128 21.3328 13.0361 21.2778C13.0594 21.2227 13.0934 21.1728 13.1361 21.1308C13.1788 21.0888 13.2293 21.0556 13.2849 21.0331C13.3405 21.0106 13.3999 20.9992 13.4599 20.9995H30.6683ZM32.0015 31.7866C32.1224 31.7859 32.2387 31.8329 32.3248 31.9174C32.411 32.0018 32.46 32.1169 32.4612 32.2373V48.5489C32.4596 48.669 32.4105 48.7837 32.3243 48.8679C32.2382 48.9521 32.1221 48.9989 32.0015 48.9981H25.741C25.6197 48.9997 25.5027 48.9532 25.4158 48.869C25.3288 48.7848 25.2789 48.6697 25.277 48.5489V32.2373C25.2777 32.1774 25.2903 32.1182 25.3141 32.0631C25.3378 32.008 25.3722 31.9581 25.4153 31.9162C25.4583 31.8744 25.5093 31.8414 25.5652 31.8192C25.6211 31.7969 25.6808 31.7859 25.741 31.7866H32.0015Z" fill="#212121"/>
</g>
<defs>
<clipPath id="clip0_188_3819">
<rect width="44" height="28" fill="white" transform="translate(13.0002 20.9998)"/>
</clipPath>
</defs>
</svg>
