<svg width="25" height="25" viewBox="0 0 25 25" fill="none" xmlns="http://www.w3.org/2000/svg">
<path d="M24.1581 19.5523C23.6164 16.6958 22.1323 14.1035 19.9431 12.1902C19.7081 9.73017 19.1104 8.51166 18.2265 6.65708C17.2737 4.68244 15.9964 3.11396 14.3411 2.29651C14.0063 2.13317 13.6553 2.00559 13.2937 1.91589V0L10.8618 0.0178817V1.93888C10.0245 2.17013 9.24951 2.58557 8.59341 3.15483C7.54889 4.08379 6.70786 5.21879 6.12319 6.48848C5.19589 8.39926 4.59047 9.71995 4.37589 12.2924C3.12687 13.4057 2.10877 14.7536 1.37944 16.2595C0.848637 17.3531 0.470445 18.5143 0.255452 19.7107L0 21.1489L8.19235 21.0952C8.22464 22.1462 8.66652 23.1428 9.42363 23.8724C10.1807 24.6019 11.1931 25.0066 12.2445 24.9999C13.2959 24.9933 14.303 24.5758 15.0508 23.8367C15.7986 23.0976 16.2278 22.0954 16.2468 21.0441L24.4391 20.9879L24.1581 19.5523ZM3.01178 18.6965C3.16421 18.2269 3.34944 17.7685 3.56611 17.3248C4.21802 15.9736 5.15797 14.7817 6.31988 13.8327L6.74393 13.4955L6.77714 12.9591C6.92275 10.4608 7.49752 9.2397 8.30986 7.55372C8.74589 6.58445 9.37624 5.715 10.1619 4.9992C10.6936 4.50783 11.3848 4.22483 12.1084 4.20219C12.5176 4.20199 12.9211 4.29826 13.2861 4.48318L13.3116 4.49596C14.2363 4.95066 15.2505 6.05932 16.0322 7.70699C16.8139 9.35465 17.3886 10.494 17.5649 12.8901L17.6032 13.424L18.0221 13.7561C19.5845 15.0058 20.7535 16.6794 21.389 18.5765L3.01178 18.6965Z" fill="#FFDA00"/>
</svg>
