<svg width="24" height="17" viewBox="0 0 24 17" fill="none" xmlns="http://www.w3.org/2000/svg">
<path d="M23.0736 0H3.6912C3.44634 0.000644382 3.21168 0.0998656 3.03853 0.275973C2.86539 0.45208 2.76783 0.690748 2.7672 0.939801V2.82184H1.3848C1.01772 2.82249 0.665863 2.97109 0.4063 3.23509C0.146737 3.49909 0.000634534 3.85697 0 4.23032V15.5006C0.000634534 15.874 0.146737 16.2318 0.4063 16.4958C0.665863 16.7598 1.01772 16.9084 1.3848 16.9091H19.8504C20.2175 16.9084 20.5693 16.7598 20.8289 16.4958C21.0885 16.2318 21.2346 15.874 21.2352 15.5006V13.145H23.0784C23.3226 13.1444 23.5567 13.0454 23.7294 12.8697C23.9021 12.6941 23.9994 12.456 24 12.2076V0.939801C23.9994 0.690326 23.9015 0.451289 23.7278 0.275112C23.5542 0.0989355 23.3189 -8.37185e-07 23.0736 0ZM20.3064 15.5006C20.3064 15.6249 20.2578 15.7441 20.1714 15.832C20.085 15.9199 19.9678 15.9693 19.8456 15.9693H1.38C1.25779 15.9693 1.14058 15.9199 1.05417 15.832C0.967751 15.7441 0.9192 15.6249 0.9192 15.5006V9.25154H20.3064V15.5006ZM20.3064 6.5786H0.9192V4.23032C0.9192 4.10602 0.967751 3.98681 1.05417 3.89892C1.14058 3.81102 1.25779 3.76164 1.38 3.76164H19.8456C19.9678 3.76164 20.085 3.81102 20.1714 3.89892C20.2578 3.98681 20.3064 4.10602 20.3064 4.23032V6.5786Z" fill="#FFDA00"/>
</svg>
