<svg width="24" height="30" viewBox="0 0 24 30" fill="none" xmlns="http://www.w3.org/2000/svg">
<path d="M19.6041 1.74883V3.75925L14.7496 2.63059V0.631931L11.9986 0L9.25039 0.631931V2.63059L4.416 3.75925V1.74883L0 2.76286V13.3617C0 21.4063 4.95475 26.4235 11.9986 29.3333C19.0453 26.4206 24 21.3975 24 13.3617V2.76286L19.6041 1.74883ZM20.7045 13.3617C20.6987 19.3694 17.3258 22.8965 11.9986 25.624C6.67415 22.8965 3.30125 19.3694 3.30125 13.3617V7.48323L11.9986 5.46106L20.6987 7.48323L20.7045 13.3617ZM8.34197 12.521L6.00931 14.9136L11.2449 20.2835L19.3605 11.9567L17.025 9.5642L11.2449 15.4955L8.34197 12.521Z" fill="#FFDA00"/>
</svg>
